# xmcd
#
# Track frame offsets: 
#        150
#        16170
#        37432
#        52362
#        68490
#        89297
#        98427
#        118250
#        131762
#        150792
#        170065
#        187335
#
# Disc length: 2613 seconds
#
# Revision: 0
# Processed by: cddbd v1.5.2PL0 Copyright (c) Steve Scherf et al.
# Submitted via: ExactAudioCopyFreeDBPlugin 1.0
#
DISCID=a60a330c
DTITLE=คาราบาว - เดอะ แมน ซิตี้ ไลอ้อน
DYEAR=1900
DGENRE=
TTITLE0=วิมานดิน
TTITLE1=เดอะ แมน ซิตี้ ไลอ้อน
TTITLE2=รองข้าวสีทอง
TTITLE3=คนทำนา
TTITLE4=ขอทานอยากเรียน
TTITLE5=ทุ่มฝัน
TTITLE6=ศิลปินมาแล้ว
TTITLE7=นักรบคนจน
TTITLE8=นกร้อย
TTITLE9=คนสู้ชีวิต
TTITLE10=นายขนมต้ม
TTITLE11=คลานไปตายดาบหน้า
EXTD=
EXTT0=
EXTT1=
EXTT2=
EXTT3=
EXTT4=
EXTT5=
EXTT6=
EXTT7=
EXTT8=
EXTT9=
EXTT10=
EXTT11=
PLAYORDER=
